<svg width="1440" height="116" viewBox="0 0 1440 116" fill="none" xmlns="http://www.w3.org/2000/svg">
<g filter="url(#filter0_d_9_187)">
<rect x="130.25" y="20" width="76" height="76" rx="20" fill="#D8B4FE" shape-rendering="crispEdges"/>
<rect x="131.75" y="21.5" width="73" height="73" rx="18.5" stroke="black" stroke-width="3" shape-rendering="crispEdges"/>
<path d="M147.693 43.5455H151.222L163.359 72.6875H163.653L175.79 43.5455H179.318V77H176.443V49.9979H176.182L164.894 77H162.117L150.83 49.9979H150.568V77H147.693V43.5455Z" fill="black"/>
<path d="M186.84 54C186.535 52.8892 186.089 51.8492 185.501 50.88C184.913 49.8999 184.183 49.045 183.312 48.3153C182.451 47.5748 181.455 46.9976 180.322 46.5838C179.201 46.17 177.948 45.9631 176.565 45.9631C174.387 45.9631 172.438 46.5294 170.717 47.6619C168.997 48.7945 167.635 50.428 166.634 52.5625C165.643 54.697 165.147 57.267 165.147 60.2727C165.147 63.2675 165.648 65.8321 166.65 67.9666C167.652 70.1011 169.024 71.7401 170.766 72.8835C172.52 74.0161 174.523 74.5824 176.778 74.5824C178.836 74.5824 180.655 74.125 182.234 73.2102C183.813 72.2955 185.043 70.9886 185.925 69.2898C186.818 67.5909 187.254 65.5708 187.232 63.2294L188.212 63.5398H177.496V60.7955H190.205V63.5398C190.205 66.393 189.628 68.8596 188.474 70.9396C187.319 73.0196 185.735 74.6259 183.72 75.7585C181.705 76.8911 179.391 77.4574 176.778 77.4574C173.859 77.4574 171.305 76.755 169.116 75.3501C166.928 73.9344 165.223 71.9415 164.004 69.3714C162.795 66.7905 162.19 63.7576 162.19 60.2727C162.19 57.6482 162.539 55.2796 163.236 53.1669C163.933 51.0542 164.918 49.2464 166.192 47.7436C167.478 46.2408 168.997 45.0919 170.75 44.2969C172.503 43.491 174.442 43.0881 176.565 43.0881C178.395 43.0881 180.067 43.3767 181.58 43.9538C183.105 44.531 184.444 45.326 185.599 46.3388C186.764 47.3407 187.717 48.5005 188.457 49.8182C189.209 51.125 189.715 52.5189 189.977 54H186.84Z" fill="black"/>
</g>
<path d="M223.011 46.7273H229.977L235.886 61.1364H236.159L242.068 46.7273H249.034V70H243.557V55.7045H243.364L237.773 69.8523H234.273L228.682 55.625H228.489V70H223.011V46.7273ZM252.543 70V52.5455H258.099V70H252.543ZM255.327 50.5114C254.546 50.5114 253.876 50.2538 253.315 49.7386C252.755 49.2159 252.474 48.5871 252.474 47.8523C252.474 47.125 252.755 46.5038 253.315 45.9886C253.876 45.4659 254.546 45.2045 255.327 45.2045C256.115 45.2045 256.785 45.4659 257.338 45.9886C257.899 46.5038 258.179 47.125 258.179 47.8523C258.179 48.5871 257.899 49.2159 257.338 49.7386C256.785 50.2538 256.115 50.5114 255.327 50.5114ZM269.784 70.3295C267.943 70.3295 266.364 69.9508 265.045 69.1932C263.735 68.4356 262.727 67.3826 262.023 66.0341C261.318 64.678 260.966 63.1098 260.966 61.3295C260.966 59.5417 261.318 57.9735 262.023 56.625C262.735 55.2689 263.746 54.2121 265.057 53.4545C266.375 52.697 267.947 52.3182 269.773 52.3182C271.386 52.3182 272.792 52.6098 273.989 53.1932C275.193 53.7765 276.133 54.6023 276.807 55.6705C277.489 56.7311 277.848 57.9773 277.886 59.4091H272.693C272.587 58.5152 272.284 57.8144 271.784 57.3068C271.292 56.7992 270.648 56.5455 269.852 56.5455C269.208 56.5455 268.644 56.7273 268.159 57.0909C267.674 57.447 267.295 57.9773 267.023 58.6818C266.758 59.3788 266.625 60.2424 266.625 61.2727C266.625 62.303 266.758 63.1742 267.023 63.8864C267.295 64.5909 267.674 65.125 268.159 65.4886C268.644 65.8447 269.208 66.0227 269.852 66.0227C270.367 66.0227 270.822 65.9129 271.216 65.6932C271.617 65.4735 271.947 65.1515 272.205 64.7273C272.462 64.2955 272.625 63.7727 272.693 63.1591H277.886C277.833 64.5985 277.473 65.8561 276.807 66.9318C276.148 68.0076 275.22 68.8447 274.023 69.4432C272.833 70.0341 271.42 70.3295 269.784 70.3295ZM286.287 60.0455V70H280.73V46.7273H286.105V55.75H286.298C286.692 54.6742 287.336 53.8333 288.23 53.2273C289.132 52.6212 290.234 52.3182 291.537 52.3182C292.764 52.3182 293.832 52.5909 294.741 53.1364C295.651 53.6742 296.355 54.4356 296.855 55.4205C297.363 56.4053 297.613 57.5568 297.605 58.875V70H292.048V59.9659C292.056 58.9962 291.813 58.2386 291.321 57.6932C290.829 57.1477 290.135 56.875 289.241 56.875C288.658 56.875 288.143 57.0038 287.696 57.2614C287.257 57.5114 286.912 57.8712 286.662 58.3409C286.42 58.8106 286.295 59.3788 286.287 60.0455ZM309.233 70.3295C307.407 70.3295 305.831 69.9697 304.506 69.25C303.188 68.5227 302.172 67.4886 301.46 66.1477C300.756 64.7992 300.403 63.197 300.403 61.3409C300.403 59.5379 300.759 57.9621 301.472 56.6136C302.184 55.2576 303.188 54.2045 304.483 53.4545C305.778 52.697 307.305 52.3182 309.062 52.3182C310.305 52.3182 311.441 52.5114 312.472 52.8977C313.502 53.2841 314.392 53.8561 315.142 54.6136C315.892 55.3712 316.475 56.3068 316.892 57.4205C317.309 58.5265 317.517 59.7955 317.517 61.2273V62.6136H302.347V59.3864H312.347C312.339 58.7955 312.199 58.2689 311.926 57.8068C311.653 57.3447 311.278 56.9848 310.801 56.7273C310.331 56.4621 309.79 56.3295 309.176 56.3295C308.555 56.3295 307.998 56.4697 307.506 56.75C307.013 57.0227 306.623 57.3977 306.335 57.875C306.047 58.3447 305.896 58.8788 305.881 59.4773V62.7614C305.881 63.4735 306.021 64.0985 306.301 64.6364C306.581 65.1667 306.979 65.5795 307.494 65.875C308.009 66.1705 308.623 66.3182 309.335 66.3182C309.828 66.3182 310.275 66.25 310.676 66.1136C311.078 65.9773 311.422 65.7765 311.71 65.5114C311.998 65.2462 312.214 64.9205 312.358 64.5341L317.46 64.6818C317.248 65.8258 316.782 66.822 316.062 67.6705C315.35 68.5114 314.415 69.1667 313.256 69.6364C312.097 70.0985 310.756 70.3295 309.233 70.3295ZM325.912 46.7273V70H320.355V46.7273H325.912ZM335.006 46.7273V70H329.449V46.7273H335.006ZM346.702 70.3295C344.876 70.3295 343.3 69.9697 341.974 69.25C340.656 68.5227 339.641 67.4886 338.929 66.1477C338.224 64.7992 337.872 63.197 337.872 61.3409C337.872 59.5379 338.228 57.9621 338.94 56.6136C339.652 55.2576 340.656 54.2045 341.952 53.4545C343.247 52.697 344.774 52.3182 346.531 52.3182C347.774 52.3182 348.91 52.5114 349.94 52.8977C350.971 53.2841 351.861 53.8561 352.611 54.6136C353.361 55.3712 353.944 56.3068 354.361 57.4205C354.777 58.5265 354.986 59.7955 354.986 61.2273V62.6136H339.815V59.3864H349.815C349.808 58.7955 349.668 58.2689 349.395 57.8068C349.122 57.3447 348.747 56.9848 348.27 56.7273C347.8 56.4621 347.259 56.3295 346.645 56.3295C346.024 56.3295 345.467 56.4697 344.974 56.75C344.482 57.0227 344.092 57.3977 343.804 57.875C343.516 58.3447 343.365 58.8788 343.349 59.4773V62.7614C343.349 63.4735 343.49 64.0985 343.77 64.6364C344.05 65.1667 344.448 65.5795 344.963 65.875C345.478 66.1705 346.092 66.3182 346.804 66.3182C347.296 66.3182 347.743 66.25 348.145 66.1136C348.546 65.9773 348.891 65.7765 349.179 65.5114C349.467 65.2462 349.683 64.9205 349.827 64.5341L354.929 64.6818C354.717 65.8258 354.251 66.822 353.531 67.6705C352.819 68.5114 351.884 69.1667 350.724 69.6364C349.565 70.0985 348.224 70.3295 346.702 70.3295ZM379.972 54.3295C379.843 53.8523 379.653 53.4318 379.403 53.0682C379.153 52.697 378.847 52.3826 378.483 52.125C378.119 51.8674 377.703 51.6742 377.233 51.5455C376.763 51.4091 376.248 51.3409 375.688 51.3409C374.559 51.3409 373.581 51.6136 372.756 52.1591C371.938 52.7045 371.305 53.5 370.858 54.5455C370.411 55.5833 370.188 56.8447 370.188 58.3295C370.188 59.822 370.403 61.0947 370.835 62.1477C371.267 63.2008 371.892 64.0038 372.71 64.5568C373.528 65.1098 374.521 65.3864 375.688 65.3864C376.718 65.3864 377.589 65.2197 378.301 64.8864C379.021 64.5455 379.566 64.0644 379.938 63.4432C380.309 62.822 380.494 62.0909 380.494 61.25L381.54 61.375H375.881V57.2727H385.915V60.3523C385.915 62.4356 385.472 64.2197 384.585 65.7045C383.706 67.1894 382.494 68.3295 380.949 69.125C379.411 69.9205 377.642 70.3182 375.642 70.3182C373.422 70.3182 371.472 69.8371 369.79 68.875C368.108 67.9129 366.797 66.5417 365.858 64.7614C364.919 62.9735 364.449 60.8523 364.449 58.3977C364.449 56.4886 364.733 54.7955 365.301 53.3182C365.869 51.8333 366.661 50.5758 367.676 49.5455C368.699 48.5152 369.881 47.7348 371.222 47.2045C372.57 46.6742 374.021 46.4091 375.574 46.4091C376.922 46.4091 378.176 46.6023 379.335 46.9886C380.502 47.375 381.532 47.9205 382.426 48.625C383.328 49.3295 384.059 50.1667 384.619 51.1364C385.18 52.1061 385.528 53.1705 385.665 54.3295H379.972ZM389.23 70V52.5455H394.628V55.7273H394.81C395.128 54.5758 395.647 53.7197 396.366 53.1591C397.086 52.5909 397.923 52.3068 398.878 52.3068C399.135 52.3068 399.401 52.3258 399.673 52.3636C399.946 52.3939 400.2 52.4432 400.435 52.5114V57.3409C400.17 57.25 399.821 57.178 399.389 57.125C398.965 57.072 398.586 57.0455 398.253 57.0455C397.594 57.0455 396.999 57.1932 396.469 57.4886C395.946 57.7765 395.533 58.1818 395.23 58.7045C394.935 59.2197 394.787 59.8258 394.787 60.5227V70H389.23ZM406.963 70.2955C405.849 70.2955 404.861 70.1098 403.997 69.7386C403.141 69.3598 402.463 68.7917 401.963 68.0341C401.471 67.2689 401.224 66.3106 401.224 65.1591C401.224 64.1894 401.395 63.3712 401.736 62.7045C402.077 62.0379 402.546 61.4962 403.145 61.0795C403.743 60.6629 404.433 60.3485 405.213 60.1364C405.993 59.9167 406.827 59.7689 407.713 59.6932C408.705 59.6023 409.505 59.5076 410.111 59.4091C410.717 59.303 411.156 59.1553 411.429 58.9659C411.709 58.7689 411.849 58.4924 411.849 58.1364V58.0795C411.849 57.4962 411.649 57.0455 411.247 56.7273C410.846 56.4091 410.304 56.25 409.622 56.25C408.887 56.25 408.296 56.4091 407.849 56.7273C407.402 57.0455 407.118 57.4848 406.997 58.0455L401.872 57.8636C402.024 56.803 402.414 55.8561 403.043 55.0227C403.679 54.1818 404.55 53.5227 405.656 53.0455C406.77 52.5606 408.107 52.3182 409.668 52.3182C410.781 52.3182 411.808 52.4508 412.747 52.7159C413.687 52.9735 414.505 53.3523 415.202 53.8523C415.899 54.3447 416.437 54.9508 416.815 55.6705C417.202 56.3902 417.395 57.2121 417.395 58.1364V70H412.168V67.5682H412.031C411.721 68.1591 411.323 68.6591 410.838 69.0682C410.361 69.4773 409.796 69.7841 409.145 69.9886C408.501 70.1932 407.774 70.2955 406.963 70.2955ZM408.679 66.6591C409.277 66.6591 409.815 66.5379 410.293 66.2955C410.777 66.053 411.164 65.7197 411.452 65.2955C411.74 64.8636 411.884 64.3636 411.884 63.7955V62.1364C411.724 62.2197 411.531 62.2955 411.304 62.3636C411.084 62.4318 410.842 62.4962 410.577 62.5568C410.312 62.6174 410.039 62.6705 409.759 62.7159C409.478 62.7614 409.209 62.803 408.952 62.8409C408.429 62.9242 407.982 63.053 407.611 63.2273C407.247 63.4015 406.967 63.6288 406.77 63.9091C406.58 64.1818 406.486 64.5076 406.486 64.8864C406.486 65.4621 406.69 65.9015 407.099 66.2045C407.516 66.5076 408.043 66.6591 408.679 66.6591ZM426.349 60.0455V70H420.793V52.5455H426.077V55.75H426.27C426.656 54.6818 427.315 53.8447 428.247 53.2386C429.179 52.625 430.289 52.3182 431.577 52.3182C432.804 52.3182 433.868 52.5947 434.77 53.1477C435.679 53.6932 436.384 54.4583 436.884 55.4432C437.391 56.4205 437.641 57.5644 437.634 58.875V70H432.077V59.9659C432.084 58.9962 431.838 58.2386 431.338 57.6932C430.846 57.1477 430.16 56.875 429.281 56.875C428.698 56.875 428.183 57.0038 427.736 57.2614C427.296 57.5114 426.955 57.8712 426.713 58.3409C426.478 58.8106 426.357 59.3788 426.349 60.0455ZM445.994 70.2955C444.881 70.2955 443.892 70.1098 443.028 69.7386C442.172 69.3598 441.494 68.7917 440.994 68.0341C440.502 67.2689 440.256 66.3106 440.256 65.1591C440.256 64.1894 440.426 63.3712 440.767 62.7045C441.108 62.0379 441.578 61.4962 442.176 61.0795C442.775 60.6629 443.464 60.3485 444.244 60.1364C445.025 59.9167 445.858 59.7689 446.744 59.6932C447.737 59.6023 448.536 59.5076 449.142 59.4091C449.748 59.303 450.188 59.1553 450.46 58.9659C450.741 58.7689 450.881 58.4924 450.881 58.1364V58.0795C450.881 57.4962 450.68 57.0455 450.278 56.7273C449.877 56.4091 449.335 56.25 448.653 56.25C447.919 56.25 447.328 56.4091 446.881 56.7273C446.434 57.0455 446.15 57.4848 446.028 58.0455L440.903 57.8636C441.055 56.803 441.445 55.8561 442.074 55.0227C442.71 54.1818 443.581 53.5227 444.688 53.0455C445.801 52.5606 447.138 52.3182 448.699 52.3182C449.813 52.3182 450.839 52.4508 451.778 52.7159C452.718 52.9735 453.536 53.3523 454.233 53.8523C454.93 54.3447 455.468 54.9508 455.847 55.6705C456.233 56.3902 456.426 57.2121 456.426 58.1364V70H451.199V67.5682H451.062C450.752 68.1591 450.354 68.6591 449.869 69.0682C449.392 69.4773 448.828 69.7841 448.176 69.9886C447.532 70.1932 446.805 70.2955 445.994 70.2955ZM447.71 66.6591C448.309 66.6591 448.847 66.5379 449.324 66.2955C449.809 66.053 450.195 65.7197 450.483 65.2955C450.771 64.8636 450.915 64.3636 450.915 63.7955V62.1364C450.756 62.2197 450.563 62.2955 450.335 62.3636C450.116 62.4318 449.873 62.4962 449.608 62.5568C449.343 62.6174 449.07 62.6705 448.79 62.7159C448.509 62.7614 448.241 62.803 447.983 62.8409C447.46 62.9242 447.013 63.053 446.642 63.2273C446.278 63.4015 445.998 63.6288 445.801 63.9091C445.612 64.1818 445.517 64.5076 445.517 64.8864C445.517 65.4621 445.722 65.9015 446.131 66.2045C446.547 66.5076 447.074 66.6591 447.71 66.6591ZM469.676 52.5455V56.6364H458.665V52.5455H469.676ZM460.972 48.3636H466.528V64.5114C466.528 64.8523 466.581 65.1288 466.688 65.3409C466.801 65.5455 466.964 65.6932 467.176 65.7841C467.388 65.8674 467.642 65.9091 467.938 65.9091C468.15 65.9091 468.373 65.8902 468.608 65.8523C468.85 65.8068 469.032 65.7689 469.153 65.7386L469.994 69.75C469.729 69.8258 469.354 69.9205 468.869 70.0341C468.392 70.1477 467.82 70.2197 467.153 70.25C465.85 70.3106 464.733 70.1591 463.801 69.7955C462.877 69.4242 462.169 68.8485 461.676 68.0682C461.191 67.2879 460.956 66.3068 460.972 65.125V48.3636Z" fill="black"/>
<path d="M1196.85 64V49.4545H1199.04V55.7756H1206.29V49.4545H1208.5V64H1206.29V57.6577H1199.04V64H1196.85ZM1216.12 64.2202C1215.09 64.2202 1214.2 63.9858 1213.44 63.517C1212.68 63.0483 1212.08 62.3925 1211.66 61.5497C1211.24 60.7069 1211.03 59.7221 1211.03 58.5952C1211.03 57.4635 1211.24 56.474 1211.66 55.6264C1212.08 54.7789 1212.68 54.1207 1213.44 53.652C1214.2 53.1832 1215.09 52.9489 1216.12 52.9489C1217.14 52.9489 1218.03 53.1832 1218.79 53.652C1219.56 54.1207 1220.15 54.7789 1220.57 55.6264C1220.99 56.474 1221.2 57.4635 1221.2 58.5952C1221.2 59.7221 1220.99 60.7069 1220.57 61.5497C1220.15 62.3925 1219.56 63.0483 1218.79 63.517C1218.03 63.9858 1217.14 64.2202 1216.12 64.2202ZM1216.12 62.4375C1216.79 62.4375 1217.34 62.2623 1217.77 61.9119C1218.21 61.5616 1218.53 61.0952 1218.74 60.5128C1218.95 59.9304 1219.06 59.2888 1219.06 58.5881C1219.06 57.892 1218.95 57.2528 1218.74 56.6705C1218.53 56.0833 1218.21 55.6122 1217.77 55.2571C1217.34 54.902 1216.79 54.7244 1216.12 54.7244C1215.46 54.7244 1214.9 54.902 1214.46 55.2571C1214.03 55.6122 1213.7 56.0833 1213.49 56.6705C1213.28 57.2528 1213.18 57.892 1213.18 58.5881C1213.18 59.2888 1213.28 59.9304 1213.49 60.5128C1213.7 61.0952 1214.03 61.5616 1214.46 61.9119C1214.9 62.2623 1215.46 62.4375 1216.12 62.4375ZM1223.57 64V53.0909H1225.61V54.8665H1225.75C1225.97 54.2652 1226.34 53.7964 1226.86 53.4602C1227.38 53.1193 1227.99 52.9489 1228.71 52.9489C1229.44 52.9489 1230.05 53.1193 1230.55 53.4602C1231.04 53.8011 1231.41 54.2699 1231.65 54.8665H1231.76C1232.02 54.2841 1232.44 53.8201 1233 53.4744C1233.57 53.1241 1234.25 52.9489 1235.04 52.9489C1236.02 52.9489 1236.83 53.259 1237.46 53.8793C1238.09 54.4995 1238.4 55.4347 1238.4 56.6847V64H1236.28V56.8835C1236.28 56.1449 1236.08 55.6098 1235.67 55.2784C1235.27 54.947 1234.79 54.7812 1234.23 54.7812C1233.54 54.7812 1233 54.9943 1232.62 55.4205C1232.24 55.8419 1232.05 56.384 1232.05 57.0469V64H1229.93V56.7486C1229.93 56.1567 1229.74 55.6809 1229.37 55.321C1229.01 54.9612 1228.52 54.7812 1227.93 54.7812C1227.53 54.7812 1227.16 54.8878 1226.82 55.1009C1226.48 55.3092 1226.21 55.6004 1226 55.9744C1225.8 56.3485 1225.7 56.7817 1225.7 57.2741V64H1223.57ZM1245.95 64.2202C1244.87 64.2202 1243.95 63.9905 1243.17 63.5312C1242.4 63.0672 1241.8 62.4162 1241.38 61.5781C1240.97 60.7353 1240.76 59.7481 1240.76 58.6165C1240.76 57.4991 1240.97 56.5142 1241.38 55.6619C1241.8 54.8097 1242.39 54.1444 1243.14 53.6662C1243.9 53.188 1244.79 52.9489 1245.8 52.9489C1246.42 52.9489 1247.01 53.0507 1247.59 53.2543C1248.17 53.4579 1248.69 53.7775 1249.15 54.2131C1249.6 54.6487 1249.97 55.2145 1250.23 55.9105C1250.5 56.6018 1250.63 57.4422 1250.63 58.4318V59.1847H1241.96V57.5938H1248.55C1248.55 57.035 1248.44 56.5402 1248.21 56.1094C1247.98 55.6738 1247.66 55.3305 1247.25 55.0795C1246.84 54.8286 1246.36 54.7031 1245.81 54.7031C1245.22 54.7031 1244.7 54.8499 1244.25 55.1435C1243.81 55.4323 1243.47 55.8111 1243.23 56.2798C1242.99 56.7438 1242.87 57.2481 1242.87 57.7926V59.0355C1242.87 59.7647 1243 60.3849 1243.26 60.8963C1243.52 61.4077 1243.88 61.7983 1244.34 62.0682C1244.81 62.3333 1245.35 62.4659 1245.97 62.4659C1246.37 62.4659 1246.74 62.4091 1247.07 62.2955C1247.4 62.1771 1247.69 62.0019 1247.93 61.7699C1248.17 61.5379 1248.36 61.2514 1248.49 60.9105L1250.5 61.2727C1250.33 61.8646 1250.05 62.383 1249.63 62.8281C1249.22 63.2685 1248.7 63.6117 1248.07 63.858C1247.45 64.0994 1246.75 64.2202 1245.95 64.2202Z" fill="black"/>
<line x1="1195.25" y1="68.5" x2="1252.25" y2="68.5" stroke="black"/>
<path d="M1278.85 65V50.4545H1284.17C1285.21 50.4545 1286.06 50.625 1286.74 50.9659C1287.42 51.3021 1287.92 51.759 1288.26 52.3366C1288.59 52.9096 1288.76 53.5559 1288.76 54.2756C1288.76 54.8816 1288.65 55.393 1288.43 55.8097C1288.21 56.2216 1287.91 56.553 1287.53 56.804C1287.16 57.0502 1286.76 57.2301 1286.31 57.3438V57.4858C1286.8 57.5095 1287.27 57.6657 1287.73 57.9545C1288.19 58.2386 1288.57 58.6435 1288.88 59.169C1289.18 59.6946 1289.33 60.3338 1289.33 61.0866C1289.33 61.83 1289.16 62.4976 1288.81 63.0895C1288.46 63.6766 1287.92 64.143 1287.2 64.4886C1286.48 64.8295 1285.55 65 1284.42 65H1278.85ZM1281.04 63.1179H1284.21C1285.26 63.1179 1286.01 62.9143 1286.47 62.5071C1286.92 62.0999 1287.15 61.5909 1287.15 60.9801C1287.15 60.5208 1287.03 60.0994 1286.8 59.7159C1286.57 59.3324 1286.24 59.027 1285.81 58.7997C1285.38 58.5724 1284.88 58.4588 1284.29 58.4588H1281.04V63.1179ZM1281.04 56.7472H1283.98C1284.48 56.7472 1284.92 56.6525 1285.31 56.4631C1285.71 56.2737 1286.02 56.0085 1286.26 55.6676C1286.49 55.322 1286.61 54.9148 1286.61 54.446C1286.61 53.8447 1286.4 53.3404 1285.98 52.9332C1285.56 52.526 1284.91 52.3224 1284.04 52.3224H1281.04V56.7472ZM1293.89 50.4545V65H1291.76V50.4545H1293.89ZM1301.34 65.2202C1300.32 65.2202 1299.42 64.9858 1298.66 64.517C1297.9 64.0483 1297.31 63.3925 1296.89 62.5497C1296.46 61.7069 1296.25 60.7221 1296.25 59.5952C1296.25 58.4635 1296.46 57.474 1296.89 56.6264C1297.31 55.7789 1297.9 55.1207 1298.66 54.652C1299.42 54.1832 1300.32 53.9489 1301.34 53.9489C1302.36 53.9489 1303.25 54.1832 1304.02 54.652C1304.78 55.1207 1305.37 55.7789 1305.79 56.6264C1306.21 57.474 1306.42 58.4635 1306.42 59.5952C1306.42 60.7221 1306.21 61.7069 1305.79 62.5497C1305.37 63.3925 1304.78 64.0483 1304.02 64.517C1303.25 64.9858 1302.36 65.2202 1301.34 65.2202ZM1301.35 63.4375C1302.01 63.4375 1302.56 63.2623 1302.99 62.9119C1303.43 62.5616 1303.75 62.0952 1303.96 61.5128C1304.17 60.9304 1304.28 60.2888 1304.28 59.5881C1304.28 58.892 1304.17 58.2528 1303.96 57.6705C1303.75 57.0833 1303.43 56.6122 1302.99 56.2571C1302.56 55.902 1302.01 55.7244 1301.35 55.7244C1300.68 55.7244 1300.12 55.902 1299.68 56.2571C1299.25 56.6122 1298.92 57.0833 1298.71 57.6705C1298.5 58.2528 1298.4 58.892 1298.4 59.5881C1298.4 60.2888 1298.5 60.9304 1298.71 61.5128C1298.92 62.0952 1299.25 62.5616 1299.68 62.9119C1300.12 63.2623 1300.68 63.4375 1301.35 63.4375ZM1313.37 69.3182C1312.5 69.3182 1311.76 69.2045 1311.13 68.9773C1310.51 68.75 1310 68.4493 1309.61 68.0753C1309.22 67.7012 1308.92 67.2917 1308.73 66.8466L1310.56 66.0938C1310.68 66.3021 1310.85 66.5223 1311.07 66.7543C1311.29 66.991 1311.58 67.1922 1311.95 67.358C1312.32 67.5237 1312.8 67.6065 1313.39 67.6065C1314.19 67.6065 1314.86 67.41 1315.39 67.017C1315.91 66.6288 1316.17 66.0085 1316.17 65.1562V63.0114H1316.04C1315.91 63.2434 1315.73 63.5014 1315.49 63.7855C1315.25 64.0696 1314.92 64.3158 1314.5 64.5241C1314.09 64.7325 1313.55 64.8366 1312.88 64.8366C1312.02 64.8366 1311.24 64.6354 1310.55 64.233C1309.86 63.8258 1309.32 63.2268 1308.92 62.4361C1308.52 61.6406 1308.32 60.6629 1308.32 59.5028C1308.32 58.3428 1308.52 57.3485 1308.91 56.5199C1309.31 55.6913 1309.85 55.0568 1310.54 54.6165C1311.23 54.1714 1312.02 53.9489 1312.89 53.9489C1313.57 53.9489 1314.12 54.0625 1314.53 54.2898C1314.95 54.5123 1315.27 54.7727 1315.51 55.071C1315.74 55.3693 1315.93 55.6321 1316.05 55.8594H1316.21V54.0909H1318.29V65.2415C1318.29 66.179 1318.07 66.9484 1317.64 67.5497C1317.2 68.151 1316.61 68.5961 1315.87 68.8849C1315.13 69.1738 1314.3 69.3182 1313.37 69.3182ZM1313.35 63.0753C1313.96 63.0753 1314.47 62.9332 1314.9 62.6491C1315.32 62.3603 1315.64 61.9484 1315.86 61.4134C1316.08 60.8736 1316.2 60.2273 1316.2 59.4744C1316.2 58.7405 1316.09 58.0942 1315.87 57.5355C1315.65 56.9768 1315.33 56.5412 1314.91 56.2287C1314.49 55.9115 1313.97 55.7528 1313.35 55.7528C1312.71 55.7528 1312.18 55.9186 1311.75 56.25C1311.32 56.5767 1311 57.0218 1310.78 57.5852C1310.57 58.1487 1310.46 58.7784 1310.46 59.4744C1310.46 60.1894 1310.57 60.8168 1310.79 61.3565C1311.01 61.8963 1311.33 62.3177 1311.76 62.6207C1312.19 62.9238 1312.72 63.0753 1313.35 63.0753Z" fill="black"/>
<defs>
<filter id="filter0_d_9_187" x="130.25" y="20" width="78" height="78" filterUnits="userSpaceOnUse" color-interpolation-filters="sRGB">
<feFlood flood-opacity="0" result="BackgroundImageFix"/>
<feColorMatrix in="SourceAlpha" type="matrix" values="0 0 0 0 0 0 0 0 0 0 0 0 0 0 0 0 0 0 127 0" result="hardAlpha"/>
<feOffset dx="2" dy="2"/>
<feComposite in2="hardAlpha" operator="out"/>
<feColorMatrix type="matrix" values="0 0 0 0 0 0 0 0 0 0 0 0 0 0 0 0 0 0 1 0"/>
<feBlend mode="normal" in2="BackgroundImageFix" result="effect1_dropShadow_9_187"/>
<feBlend mode="normal" in="SourceGraphic" in2="effect1_dropShadow_9_187" result="shape"/>
</filter>
</defs>
</svg>
