<svg width="41" height="42" viewBox="0 0 41 42" fill="none" xmlns="http://www.w3.org/2000/svg">
<path d="M8.95262 3.48914C13.6073 7.44514 18.614 15.4663 20.4522 19.7709C22.2906 15.4666 27.297 7.44506 31.9518 3.48914C35.3104 0.634645 40.7522 -1.574 40.7522 5.45403C40.7522 6.85762 40.0414 17.2449 39.6244 18.9313C38.1752 24.7942 32.8944 26.2895 28.1969 25.3845C36.4079 26.9665 38.4967 32.2068 33.9857 37.4472C25.4184 47.3996 21.672 34.9501 20.7116 31.7601C20.5357 31.1752 20.4533 30.9017 20.4521 31.1343C20.4509 30.9017 20.3685 31.1752 20.1926 31.7601C19.2326 34.9501 15.4862 47.3999 6.91846 37.4472C2.40738 32.2068 4.49611 26.9662 12.7072 25.3845C8.00969 26.2895 2.72875 24.7941 1.27975 18.9313C0.862814 17.2448 0.151978 6.85746 0.151978 5.45403C0.151978 -1.574 5.59392 0.634645 8.95238 3.48914H8.95262Z" fill="black"/>
</svg>
