<svg width="41" height="40" viewBox="0 0 41 40" fill="none" xmlns="http://www.w3.org/2000/svg">
<path fill-rule="evenodd" clip-rule="evenodd" d="M20.4522 0.674438C9.51022 0.674438 0.63739 9.5453 0.63739 20.4892C0.63739 29.2443 6.31494 36.6714 14.188 39.2918C15.1779 39.4755 15.5415 38.862 15.5415 38.3386C15.5415 37.8661 15.5231 36.3052 15.5146 34.6495C10.0021 35.8481 8.83887 32.3116 8.83887 32.3116C7.93752 30.0213 6.6388 29.4123 6.6388 29.4123C4.84067 28.1825 6.77431 28.2081 6.77431 28.2081C8.76373 28.3475 9.81177 30.25 9.81177 30.25C11.579 33.2786 14.4472 32.4031 15.5779 31.8972C15.7557 30.6165 16.2693 29.742 16.8359 29.2472C12.4348 28.7468 7.80791 27.0475 7.80791 19.455C7.80791 17.2917 8.58228 15.5241 9.84983 14.1361C9.64377 13.6373 8.96553 11.622 10.0415 8.89266C10.0415 8.89266 11.705 8.36011 15.4916 10.9238C17.0725 10.4844 18.7679 10.2636 20.4522 10.256C22.1355 10.2636 23.8319 10.4837 25.4157 10.9231C29.1977 8.35945 30.8593 8.892 30.8593 8.892C31.9379 11.621 31.2597 13.6367 31.0539 14.1354C32.3244 15.5234 33.0932 17.291 33.0932 19.4543C33.0932 27.0649 28.4578 28.7403 24.0455 29.2312C24.7565 29.8461 25.3898 31.0523 25.3898 32.9006C25.3898 35.5518 25.3669 37.6856 25.3669 38.3383C25.3669 38.8656 25.7239 39.4834 26.7279 39.2888C34.5964 36.6658 40.2673 29.241 40.2673 20.4892C40.267 9.54595 31.3952 0.674438 20.4522 0.674438Z" fill="#181616"/>
<path d="M8.14229 29.1239C8.09865 29.2223 7.94377 29.2518 7.80268 29.1846C7.6583 29.1203 7.57791 28.9861 7.62451 28.8873C7.66716 28.7856 7.82237 28.7577 7.96576 28.8256C8.11013 28.8902 8.19216 29.0258 8.14196 29.1242L8.14229 29.1239ZM8.94488 30.0193C8.85071 30.1069 8.66598 30.0662 8.54063 29.9275C8.4107 29.7896 8.38641 29.6049 8.48255 29.516C8.58034 29.4287 8.75949 29.47 8.88943 29.6079C9.01871 29.7476 9.0443 29.9307 8.94521 30.0197L8.94488 30.0193ZM9.72648 31.1602C9.60507 31.2449 9.40623 31.1658 9.28351 30.9896C9.1621 30.8131 9.1621 30.6014 9.28679 30.5171C9.40918 30.4324 9.60507 30.5089 9.72976 30.6835C9.85051 30.8623 9.85051 31.0742 9.72648 31.1602ZM10.7965 32.263C10.6882 32.3828 10.4566 32.3507 10.2872 32.1876C10.1143 32.0278 10.0661 31.8004 10.1747 31.681C10.2849 31.5609 10.5176 31.5943 10.6879 31.7564C10.8608 31.9159 10.913 32.1436 10.7971 32.2627L10.7965 32.263ZM12.2731 32.9032C12.2248 33.0584 12.0024 33.129 11.7776 33.0627C11.5535 32.9948 11.4068 32.8133 11.4527 32.6565C11.4987 32.5 11.7228 32.4268 11.9489 32.4973C12.173 32.5649 12.3196 32.7454 12.2731 32.9032ZM13.895 33.0217C13.9006 33.1851 13.7102 33.3203 13.475 33.3235C13.2377 33.3291 13.0458 33.1966 13.0435 33.0358C13.0435 32.8707 13.2299 32.7372 13.4668 32.7326C13.702 32.7283 13.8953 32.8596 13.8953 33.0213L13.895 33.0217ZM15.4037 32.7651C15.4319 32.9242 15.2682 33.088 15.0342 33.1316C14.8045 33.1742 14.5913 33.0752 14.5617 32.9173C14.5335 32.7539 14.7002 32.5902 14.9299 32.5479C15.1642 32.5075 15.3742 32.6033 15.4037 32.7651Z" fill="#181616"/>
</svg>
