<svg width="42" height="42" viewBox="0 0 42 42" fill="none" xmlns="http://www.w3.org/2000/svg">
    <path d="M7.53856 34.125C6.65452 34.125 5.90625 33.8188 5.29375 33.2062C4.68125 32.5938 4.375 31.8455 4.375 30.9614V11.0386C4.375 10.1545 4.68125 9.40625 5.29375 8.79375C5.90625 8.18125 6.65452 7.875 7.53856 7.875H34.4614C35.3455 7.875 36.0938 8.18125 36.7062 8.79375C37.3187 9.40625 37.625 10.1545 37.625 11.0386V30.9614C37.625 31.8455 37.3187 32.5938 36.7062 33.2062C36.0938 33.8188 35.3455 34.125 34.4614 34.125H7.53856ZM21 21.9761L35 13.0239L34.7309 10.5L21 19.25L7.26906 10.5L7 13.0239L21 21.9761Z" fill="black"/>
</svg>
