<svg width="48" height="64" viewBox="0 0 48 64" fill="none" xmlns="http://www.w3.org/2000/svg">
    <path fill-rule="evenodd" clip-rule="evenodd" d="M37.0607 18.9393C37.6464 19.5251 37.6464 20.4749 37.0607 21.0607L25.0607 33.0607C24.4749 33.6464 23.5251 33.6464 22.9393 33.0607L10.9393 21.0607C10.3536 20.4749 10.3536 19.5251 10.9393 18.9393C11.5251 18.3536 12.4749 18.3536 13.0607 18.9393L24 29.8787L34.9393 18.9393C35.5251 18.3536 36.4749 18.3536 37.0607 18.9393Z" fill="#030D45"/>
    <path fill-rule="evenodd" clip-rule="evenodd" d="M37.0607 34.9393C37.6464 35.5251 37.6464 36.4749 37.0607 37.0607L25.0607 49.0607C24.4749 49.6464 23.5251 49.6464 22.9393 49.0607L10.9393 37.0607C10.3536 36.4749 10.3536 35.5251 10.9393 34.9393C11.5251 34.3536 12.4749 34.3536 13.0607 34.9393L24 45.8787L34.9393 34.9393C35.5251 34.3536 36.4749 34.3536 37.0607 34.9393Z" fill="#030D45"/>
</svg>
