<svg width="96" height="95" viewBox="0 0 96 95" fill="none" xmlns="http://www.w3.org/2000/svg">
<path d="M1.8223 38.7188C1.2543 45.2061 19.9506 49.5859 28.419 50.9931C28.082 52.5313 0.874717 62.4232 4.44922 69.6544C9.66203 80.1999 34.3619 58.2058 34.9698 61.5631C35.5777 64.9204 26.3238 92.4472 34.8645 92.7062C48.9549 93.1335 49.3999 60.694 51.7951 62.0247C54.1904 63.3554 73.4377 83.4234 79.2171 74.2111C85.8915 63.5722 55.4675 52.6195 57.9433 52.3558C60.4191 52.0922 99.0313 46.3107 93.2251 37.2473C84.7002 23.9399 57.8823 41.5956 58.7809 37.4936C60.241 30.8279 76.0729 3.93581 66.5871 1.85789C49.1802 -1.9552 47.7496 32.659 45.1468 28.5961C42.5441 24.5332 24.6031 3.40798 18.5673 12.5641C12.5315 21.7202 27.8868 35.0248 25.3549 35.5449C22.8229 36.0649 2.5378 30.5466 1.8223 38.7188Z" fill="#FCD34D" stroke="black" stroke-width="3"/>
</svg>
